<svg viewBox="0 0 16 16" fill="none" xmlns="http://www.w3.org/2000/svg">
    <path
        d="M12 5.3335C12 7.54264 10.2091 9.3335 8 9.3335C5.79086 9.3335 4 7.54264 4 5.3335C4 3.12436 5.79086 1.3335 8 1.3335C10.2091 1.3335 12 3.12436 12 5.3335Z"
        fill="#3C3C3C" />
    <path
        d="M3.35558 7.18896C2.14767 7.87735 1.33325 9.17689 1.33325 10.6667C1.33325 12.8758 3.12411 14.6667 5.33325 14.6667C7.54239 14.6667 9.33325 12.8758 9.33325 10.6667C9.33325 10.4958 9.32254 10.3274 9.30174 10.1622C8.88667 10.2738 8.45024 10.3333 7.99992 10.3333C5.89418 10.3333 4.09247 9.03161 3.35558 7.18896Z"
        fill="#3C3C3C" />
    <path
        d="M10.2577 9.79575C10.3073 10.0786 10.3332 10.3696 10.3332 10.6666C10.3332 12.0604 9.76296 13.321 8.84302 14.2277C9.38984 14.5083 10.0097 14.6666 10.6666 14.6666C12.8757 14.6666 14.6666 12.8758 14.6666 10.6666C14.6666 9.17689 13.8522 7.87735 12.6443 7.18896C12.1917 8.32071 11.3374 9.2484 10.2577 9.79575Z"
        fill="#3C3C3C" />
</svg>