<svg viewBox="0 0 16 16" fill="none" xmlns="http://www.w3.org/2000/svg">
    <path fill-rule="evenodd" clip-rule="evenodd"
        d="M11.6667 1.8335C11.9429 1.8335 12.1667 2.05735 12.1667 2.3335V3.8335H13.6667C13.9429 3.8335 14.1667 4.05735 14.1667 4.3335C14.1667 4.60964 13.9429 4.8335 13.6667 4.8335H12.1667V6.3335C12.1667 6.60964 11.9429 6.8335 11.6667 6.8335C11.3906 6.8335 11.1667 6.60964 11.1667 6.3335V4.8335H9.66675C9.39061 4.8335 9.16675 4.60964 9.16675 4.3335C9.16675 4.05735 9.39061 3.8335 9.66675 3.8335H11.1667V2.3335C11.1667 2.05735 11.3906 1.8335 11.6667 1.8335Z"
        fill="#3C3C3C" />
    <path
        d="M1.33325 4.3335C1.33325 2.91928 1.33325 2.21218 1.77259 1.77284C2.21193 1.3335 2.91904 1.3335 4.33325 1.3335C5.74747 1.3335 6.45457 1.3335 6.89391 1.77284C7.33325 2.21218 7.33325 2.91928 7.33325 4.3335C7.33325 5.74771 7.33325 6.45482 6.89391 6.89416C6.45457 7.3335 5.74747 7.3335 4.33325 7.3335C2.91904 7.3335 2.21193 7.3335 1.77259 6.89416C1.33325 6.45482 1.33325 5.74771 1.33325 4.3335Z"
        fill="#3C3C3C" />
    <path
        d="M8.66675 11.6665C8.66675 10.2523 8.66675 9.54518 9.10609 9.10584C9.54543 8.6665 10.2525 8.6665 11.6667 8.6665C13.081 8.6665 13.7881 8.6665 14.2274 9.10584C14.6667 9.54518 14.6667 10.2523 14.6667 11.6665C14.6667 13.0807 14.6667 13.7878 14.2274 14.2272C13.7881 14.6665 13.081 14.6665 11.6667 14.6665C10.2525 14.6665 9.54543 14.6665 9.10609 14.2272C8.66675 13.7878 8.66675 13.0807 8.66675 11.6665Z"
        fill="#3C3C3C" />
    <path
        d="M1.33325 11.6665C1.33325 10.2523 1.33325 9.54518 1.77259 9.10584C2.21193 8.6665 2.91904 8.6665 4.33325 8.6665C5.74747 8.6665 6.45457 8.6665 6.89391 9.10584C7.33325 9.54518 7.33325 10.2523 7.33325 11.6665C7.33325 13.0807 7.33325 13.7878 6.89391 14.2272C6.45457 14.6665 5.74747 14.6665 4.33325 14.6665C2.91904 14.6665 2.21193 14.6665 1.77259 14.2272C1.33325 13.7878 1.33325 13.0807 1.33325 11.6665Z"
        fill="#3C3C3C" />
</svg>