<svg viewBox="0 0 16 16" fill="none" xmlns="http://www.w3.org/2000/svg">
    <path
        d="M3.31914 6.45656C1.99521 5.92699 1.33325 5.6622 1.33325 5.33317C1.33325 5.00414 1.99521 4.73935 3.31914 4.20978L5.19145 3.46086C6.51537 2.93129 7.17734 2.6665 7.99992 2.6665C8.8225 2.6665 9.48446 2.93129 10.8084 3.46086L12.6807 4.20978C14.0046 4.73935 14.6666 5.00414 14.6666 5.33317C14.6666 5.6622 14.0046 5.92699 12.6807 6.45656L10.8084 7.20548C9.48446 7.73505 8.8225 7.99984 7.99992 7.99984C7.17734 7.99984 6.51537 7.73505 5.19145 7.20548L3.31914 6.45656Z"
        fill="#3C3C3C" />
    <path fill-rule="evenodd" clip-rule="evenodd"
        d="M1.33325 5.33317C1.33325 5.6622 1.99521 5.92699 3.31914 6.45656L5.19145 7.20548C6.51537 7.73505 7.17734 7.99984 7.99992 7.99984C8.8225 7.99984 9.48446 7.73505 10.8084 7.20548L12.6807 6.45656C14.0046 5.92699 14.6666 5.6622 14.6666 5.33317C14.6666 5.00414 14.0046 4.73935 12.6807 4.20978L10.8084 3.46086C9.48446 2.93129 8.8225 2.6665 7.99992 2.6665C7.17734 2.6665 6.51537 2.93129 5.19145 3.46086L3.31914 4.20978C1.99521 4.73935 1.33325 5.00414 1.33325 5.33317Z"
        fill="#3C3C3C" />
    <path
        d="M12.6807 9.12322L10.8084 9.87215C9.48446 10.4017 8.8225 10.6665 7.99992 10.6665C7.17734 10.6665 6.51537 10.4017 5.19145 9.87215L3.31914 9.12322C1.99521 8.59365 1.33325 8.32887 1.33325 7.99984C1.33325 7.70324 1.87113 7.45885 2.94687 7.02567L5.04087 7.86329C6.2733 8.35651 7.04789 8.6665 7.99992 8.6665C8.95195 8.6665 9.72654 8.35651 10.959 7.86329L13.053 7.02567C14.1287 7.45885 14.6666 7.70324 14.6666 7.99984C14.6666 8.32887 14.0046 8.59365 12.6807 9.12322Z"
        fill="#3C3C3C" />
    <path
        d="M12.6807 11.7898L10.8084 12.5387C9.48446 13.0683 8.8225 13.3331 7.99992 13.3331C7.17734 13.3331 6.51537 13.0683 5.19145 12.5387L3.31914 11.7898C1.99521 11.2602 1.33325 10.9954 1.33325 10.6664C1.33325 10.3698 1.87113 10.1254 2.94687 9.69222L5.04087 10.5298C6.2733 11.0231 7.04789 11.3331 7.99992 11.3331C8.95195 11.3331 9.72654 11.0231 10.959 10.5298L13.053 9.69222C14.1287 10.1254 14.6666 10.3698 14.6666 10.6664C14.6666 10.9954 14.0046 11.2602 12.6807 11.7898Z"
        fill="#3C3C3C" />
</svg>