<svg viewBox="0 0 19 20" fill="none" xmlns="http://www.w3.org/2000/svg">
    <path
        d="M9.50049 0C10.4392 1.43709e-09 10.9085 0.0001782 11.2788 0.152344C11.7725 0.3553 12.1651 0.744427 12.3696 1.23438C12.463 1.45802 12.4999 1.71834 12.5142 2.09766C12.5352 2.65538 12.823 3.17212 13.3101 3.45117C13.7971 3.73019 14.392 3.71977 14.8892 3.45898C15.2274 3.28159 15.4725 3.18297 15.7144 3.15137C16.2443 3.08213 16.7806 3.22397 17.2046 3.54688C17.5225 3.78905 17.7567 4.19313 18.2261 5C18.6954 5.80671 18.9305 6.21022 18.9829 6.60449C19.0527 7.13039 18.9089 7.66316 18.5835 8.08398C18.435 8.2759 18.2266 8.43777 17.9028 8.63965C17.4267 8.93654 17.1197 9.44194 17.1196 10C17.1196 10.5581 17.4267 11.0634 17.9028 11.3604C18.2266 11.5622 18.435 11.7241 18.5835 11.916C18.9088 12.3367 19.0525 12.8688 18.9829 13.3945C18.9306 13.789 18.6956 14.193 18.2261 15C17.7566 15.8069 17.5216 16.211 17.2036 16.4531C16.7797 16.7757 16.244 16.9178 15.7144 16.8486C15.4725 16.817 15.2273 16.7184 14.8892 16.541C14.392 16.2802 13.7971 16.2698 13.3101 16.5488C12.8231 16.8279 12.5352 17.3447 12.5142 17.9023C12.4999 18.2817 12.463 18.542 12.3696 18.7656C12.1651 19.2556 11.7725 19.6447 11.2788 19.8477C10.9085 19.9998 10.4392 20 9.50049 20C8.56151 20 8.09153 19.9999 7.72119 19.8477C7.22753 19.6447 6.83488 19.2556 6.63037 18.7656C6.53703 18.542 6.50112 18.2816 6.48682 17.9023C6.4658 17.3446 6.17696 16.8279 5.68994 16.5488C5.20309 16.2701 4.60881 16.2804 4.11182 16.541C3.77354 16.7185 3.52753 16.817 3.28564 16.8486C2.75599 16.9177 2.22026 16.7758 1.79639 16.4531C1.47837 16.2109 1.24342 15.807 0.773926 15C0.30462 14.1933 0.0695227 13.7898 0.0170898 13.3955C-0.0526727 12.8696 0.0911381 12.3368 0.416504 11.916C0.56501 11.724 0.774299 11.5633 1.09814 11.3613C1.57431 11.0644 1.88034 10.5581 1.88037 10C1.88039 9.44185 1.57435 8.93563 1.09814 8.63867C0.774214 8.43667 0.565012 8.27509 0.416504 8.08301C0.0913674 7.66225 -0.0526494 7.13021 0.0170898 6.60449C0.0694998 6.2102 0.304625 5.80671 0.773926 5C1.24342 4.19297 1.47837 3.78906 1.79639 3.54688C2.22039 3.22406 2.75679 3.08214 3.28662 3.15137C3.52837 3.18304 3.77372 3.28164 4.11182 3.45898C4.60878 3.71959 5.2031 3.72992 5.68994 3.45117C6.17693 3.17214 6.4658 2.65535 6.48682 2.09766C6.50112 1.71835 6.53703 1.45801 6.63037 1.23438C6.83488 0.744428 7.22753 0.355346 7.72119 0.152344C8.09153 0.000102818 8.56151 0 9.50049 0ZM9.50049 7C7.83102 7 6.47705 8.34315 6.47705 10C6.47705 11.6569 7.83102 13 9.50049 13C11.1698 12.9998 12.5229 11.6567 12.5229 10C12.5229 8.34327 11.1698 7.0002 9.50049 7Z"
    />
</svg>
    