<svg viewBox="0 0 16 16" fill="none" xmlns="http://www.w3.org/2000/svg">
    <path
        d="M4 3.00016C4 2.37709 4 2.06555 4.13397 1.8335C4.22174 1.68148 4.34798 1.55524 4.5 1.46747C4.73205 1.3335 5.04359 1.3335 5.66667 1.3335H10.3333C10.9564 1.3335 11.2679 1.3335 11.5 1.46747C11.652 1.55524 11.7783 1.68148 11.866 1.8335C12 2.06555 12 2.37709 12 3.00016C12 3.62324 12 3.93478 11.866 4.16683C11.7783 4.31885 11.652 4.44509 11.5 4.53285C11.2679 4.66683 10.9564 4.66683 10.3333 4.66683H5.66667C5.04359 4.66683 4.73205 4.66683 4.5 4.53285C4.34798 4.44509 4.22174 4.31885 4.13397 4.16683C4 3.93478 4 3.62324 4 3.00016Z"
        fill="#3C3C3C" />
    <path
        d="M3.33484 2.62598C3.23172 2.71757 3.16675 2.85116 3.16675 2.99993C3.16675 3.1487 3.23172 3.2823 3.33484 3.37389C3.3334 3.26405 3.33341 3.14795 3.33342 3.02675V2.97312C3.33341 2.85192 3.3334 2.73582 3.33484 2.62598Z"
        fill="#3C3C3C" />
    <path
        d="M6.66675 10.6668V13.3335C6.66675 13.962 6.66675 14.2763 6.86201 14.4716C7.05727 14.6668 7.37154 14.6668 8.00008 14.6668C8.62862 14.6668 8.94289 14.6668 9.13815 14.4716C9.33342 14.2763 9.33341 13.962 9.33341 13.3335V10.6668C9.33341 10.0383 9.33342 9.72402 9.13815 9.52876C8.94289 9.3335 8.62862 9.3335 8.00008 9.3335C7.37154 9.3335 7.05727 9.3335 6.86201 9.52876C6.66675 9.72402 6.66675 10.0383 6.66675 10.6668Z"
        fill="#3C3C3C" />
    <path
        d="M12.6629 3.5H12.6968C12.9999 3.5 13.2034 3.50025 13.3611 3.51053C13.5145 3.52053 13.5895 3.53851 13.6389 3.55793C13.854 3.64263 14.0243 3.81291 14.109 4.02805C14.1284 4.07739 14.1464 4.15239 14.1564 4.30585C14.1667 4.46354 14.1669 4.66696 14.1669 4.97007C14.1669 5.52828 14.1598 5.68123 14.1193 5.79594C14.0498 5.99279 13.9089 6.15637 13.7246 6.25432C13.6172 6.3114 13.4669 6.34107 12.9149 6.42387L10.166 6.83621C9.65088 6.91346 9.21846 6.97831 8.87681 7.07438C8.51476 7.17618 8.19442 7.32822 7.94438 7.61856C7.68895 7.91516 7.5835 8.27034 7.53809 8.67078C7.67421 8.66661 7.81797 8.66664 7.96385 8.66667H8.03641C8.21305 8.66664 8.38659 8.6666 8.54722 8.67401C8.58056 8.46015 8.63212 8.3524 8.70212 8.27112C8.77509 8.18638 8.8871 8.11026 9.1475 8.03704C9.42142 7.96002 9.79098 7.90365 10.3455 7.82047L13.1427 7.40094C13.5765 7.33624 13.9144 7.28585 14.1938 7.1374C14.5994 6.9219 14.9093 6.56203 15.0622 6.12897C15.1676 5.83066 15.1673 5.48902 15.1669 5.05039L15.1669 4.95399C15.1669 4.67108 15.1669 4.43489 15.1543 4.2408C15.1411 4.03882 15.1127 3.84781 15.0395 3.66172C14.8531 3.18841 14.4785 2.81379 14.0052 2.62745C13.8191 2.55418 13.6281 2.52581 13.4261 2.51265C13.232 2.49999 12.9958 2.5 12.7129 2.5H12.6629C12.6668 2.64578 12.6668 2.80454 12.6668 2.97318V3.02683C12.6668 3.19547 12.6668 3.35422 12.6629 3.5Z"
        fill="#3C3C3C" />
</svg>