<svg viewBox="0 0 16 16" fill="none" xmlns="http://www.w3.org/2000/svg">
    <path
        d="M4.33326 12.0002L4.33326 11.9405C4.33319 11.3634 4.33313 10.8343 4.39099 10.4039C4.45472 9.92992 4.60465 9.42895 5.01668 9.01692C5.42871 8.60489 5.92968 8.45496 6.40365 8.39124C6.83407 8.33337 7.36318 8.33343 7.94026 8.3335H8.05959C8.63668 8.33343 9.16579 8.33337 9.5962 8.39124C10.0702 8.45496 10.5711 8.60489 10.9832 9.01692C11.3952 9.42895 11.5451 9.92992 11.6089 10.4039C11.6659 10.828 11.6667 11.3478 11.6666 11.915C13.3817 11.5482 14.6666 10.0401 14.6666 8.23546C14.6666 6.58758 13.5952 5.18699 12.1033 4.67681C11.8913 2.79597 10.2772 1.3335 8.31738 1.3335C6.21344 1.3335 4.50786 3.01901 4.50786 5.0982C4.50786 5.55808 4.59129 5.99869 4.74402 6.40607C4.56492 6.37132 4.37981 6.3531 4.19039 6.3531C2.61244 6.3531 1.33325 7.61724 1.33325 9.17663C1.33325 10.736 2.61244 12.0002 4.19039 12.0002L4.33326 12.0002Z"
        fill="#3C3C3C" />
    <path fill-rule="evenodd" clip-rule="evenodd"
        d="M7.99992 9.3335C6.74284 9.3335 6.1143 9.3335 5.72378 9.72402C5.33325 10.1145 5.33325 10.7431 5.33325 12.0002C5.33325 13.2572 5.33325 13.8858 5.72378 14.2763C6.1143 14.6668 6.74284 14.6668 7.99992 14.6668C9.257 14.6668 9.88554 14.6668 10.2761 14.2763C10.6666 13.8858 10.6666 13.2572 10.6666 12.0002C10.6666 10.7431 10.6666 10.1145 10.2761 9.72402C9.88554 9.3335 9.257 9.3335 7.99992 9.3335ZM9.20308 11.3896L8.31419 10.5007C8.14062 10.3271 7.85922 10.3271 7.68565 10.5007L6.79676 11.3896C6.62319 11.5632 6.62319 11.8446 6.79676 12.0181C6.97033 12.1917 7.25173 12.1917 7.4253 12.0181L7.55547 11.888V13.1853C7.55547 13.4308 7.75446 13.6298 7.99992 13.6298C8.24538 13.6298 8.44436 13.4308 8.44436 13.1853V11.888L8.57454 12.0181C8.7481 12.1917 9.02951 12.1917 9.20308 12.0181C9.37664 11.8446 9.37664 11.5632 9.20308 11.3896Z"
        fill="#3C3C3C" />
</svg>