<svg viewBox="0 0 18 18" fill="none" xmlns="http://www.w3.org/2000/svg">
    <path fill-rule="evenodd" clip-rule="evenodd"
        d="M1.5 9C1.5 5.46447 1.5 3.6967 2.59835 2.59835C3.6967 1.5 5.46447 1.5 9 1.5C12.5355 1.5 14.3033 1.5 15.4017 2.59835C16.5 3.6967 16.5 5.46447 16.5 9C16.5 12.5355 16.5 14.3033 15.4017 15.4017C14.3033 16.5 12.5355 16.5 9 16.5C5.46447 16.5 3.6967 16.5 2.59835 15.4017C1.5 14.3033 1.5 12.5355 1.5 9ZM4.6875 9C4.6875 9.31066 4.93934 9.5625 5.25 9.5625H9.142L7.85225 10.8523C7.63258 11.0719 7.63258 11.4281 7.85225 11.6477C8.07192 11.8674 8.42808 11.8674 8.64775 11.6477L10.8977 9.39775C11.0032 9.29226 11.0625 9.14918 11.0625 9C11.0625 8.85082 11.0032 8.70774 10.8977 8.60225L8.64775 6.35225C8.42808 6.13258 8.07192 6.13258 7.85225 6.35225C7.63258 6.57192 7.63258 6.92808 7.85225 7.14775L9.142 8.4375H5.25C4.93934 8.4375 4.6875 8.68934 4.6875 9ZM13.3125 6C13.3125 5.68934 13.0607 5.4375 12.75 5.4375C12.4393 5.4375 12.1875 5.68934 12.1875 6V12C12.1875 12.3107 12.4393 12.5625 12.75 12.5625C13.0607 12.5625 13.3125 12.3107 13.3125 12V6Z"
    />
</svg>