<svg viewBox="0 0 24 24" fill="none" xmlns="http://www.w3.org/2000/svg">
    <path
        d="M0 6.48C0 4.16426 0 3.00639 0.464937 2.12828C0.840138 1.41965 1.41965 0.840138 2.12828 0.464937C3.00639 0 4.16426 0 6.48 0H17.52C19.8357 0 20.9936 0 21.8717 0.464937C22.5803 0.840138 23.1599 1.41965 23.5351 2.12828C24 3.00639 24 4.16426 24 6.48V17.52C24 19.8357 24 20.9936 23.5351 21.8717C23.1599 22.5803 22.5803 23.1599 21.8717 23.5351C20.9936 24 19.8357 24 17.52 24H6.48C4.16426 24 3.00639 24 2.12828 23.5351C1.41965 23.1599 0.840138 22.5803 0.464937 21.8717C0 20.9936 0 19.8357 0 17.52V6.48Z"
        fill="#FF0000" />
    <path
        d="M12.2925 16.6533L9.58433 16.6027C8.7075 16.585 7.82849 16.6202 6.96885 16.4375C5.66114 16.1645 5.5685 14.8259 5.47156 13.7031C5.33798 12.1245 5.38969 10.5173 5.64176 8.95192C5.78407 8.07358 6.34409 7.54947 7.21014 7.49243C10.1337 7.28545 13.0767 7.30998 15.9938 7.40654C16.3019 7.4154 16.6121 7.46378 16.9159 7.51885C18.4154 7.78747 18.452 9.3044 18.5492 10.5814C18.6461 11.8715 18.6052 13.1683 18.4199 14.4497C18.2713 15.5106 17.9868 16.4003 16.7866 16.4862C15.2828 16.5985 13.8134 16.6889 12.3054 16.6601C12.3054 16.6533 12.2968 16.6533 12.2925 16.6533ZM10.7003 13.9673C11.8336 13.3024 12.9453 12.6485 14.072 11.988C12.9367 11.3231 11.8271 10.6692 10.7003 10.0087V13.9673Z"
        fill="white" />
</svg>